<?xml version="1.0" encoding="UTF-8" standalone="no"?>
<!-- Created with Inkscape (http://www.inkscape.org/) -->

<svg
   xmlns:osb="http://www.openswatchbook.org/uri/2009/osb"
   xmlns:dc="http://purl.org/dc/elements/1.1/"
   xmlns:cc="http://creativecommons.org/ns#"
   xmlns:rdf="http://www.w3.org/1999/02/22-rdf-syntax-ns#"
   xmlns:svg="http://www.w3.org/2000/svg"
   xmlns="http://www.w3.org/2000/svg"
   xmlns:sodipodi="http://sodipodi.sourceforge.net/DTD/sodipodi-0.dtd"
   xmlns:inkscape="http://www.inkscape.org/namespaces/inkscape"
   width="75.137321mm"
   height="75.137321mm"
   viewBox="0 0 75.137321 75.137321"
   version="1.1"
   id="svg8"
   inkscape:export-filename="C:\Users\Joci654\Desktop\opinioneraLogo.png"
   inkscape:export-xdpi="96"
   inkscape:export-ydpi="96"
   sodipodi:docname="logo.svg"
   inkscape:version="0.92.4 (5da689c313, 2019-01-14)">
  <defs
     id="defs2">
    <linearGradient
       id="linearGradient5980"
       osb:paint="solid">
      <stop
         style="stop-color:#000000;stop-opacity:1;"
         offset="0"
         id="stop5978" />
    </linearGradient>
    <linearGradient
       id="linearGradient4540"
       osb:paint="solid">
      <stop
         style="stop-color:#000000;stop-opacity:1;"
         offset="0"
         id="stop4538" />
    </linearGradient>
  </defs>
  <sodipodi:namedview
     id="base"
     pagecolor="#ffffff"
     bordercolor="#666666"
     borderopacity="1.0"
     inkscape:pageopacity="0.0"
     inkscape:pageshadow="2"
     inkscape:zoom="0.98994949"
     inkscape:cx="165.90194"
     inkscape:cy="208.85767"
     inkscape:document-units="mm"
     inkscape:current-layer="layer1"
     showgrid="false"
     inkscape:window-width="1366"
     inkscape:window-height="705"
     inkscape:window-x="-8"
     inkscape:window-y="-8"
     inkscape:window-maximized="1" />
  <metadata
     id="metadata5">
    <rdf:RDF>
      <cc:Work
         rdf:about="">
        <dc:format>image/svg+xml</dc:format>
        <dc:type
           rdf:resource="http://purl.org/dc/dcmitype/StillImage" />
        <dc:title></dc:title>
      </cc:Work>
    </rdf:RDF>
  </metadata>
  <g
     inkscape:label="Layer 1"
     inkscape:groupmode="layer"
     id="layer1"
     transform="translate(-43.412738,-118.7297)">
    <circle
       style="opacity:1;fill:none;fill-opacity:1;fill-rule:nonzero;stroke:#000000;stroke-width:0.41828772;stroke-miterlimit:4;stroke-dasharray:none;stroke-opacity:1"
       id="path6340"
       cx="50.246677"
       cy="182.07411"
       r="1.2924342" />
    <circle
       style="opacity:1;fill:none;fill-opacity:1;fill-rule:nonzero;stroke:#000000;stroke-width:0.44858947;stroke-miterlimit:4;stroke-dasharray:none;stroke-opacity:1"
       id="path6342"
       cx="54.255711"
       cy="176.46143"
       r="2.0790918" />
    <circle
       style="opacity:1;fill:none;fill-opacity:1;fill-rule:nonzero;stroke:#000000;stroke-width:0.45879319;stroke-miterlimit:4;stroke-dasharray:none;stroke-opacity:1"
       id="path6348"
       cx="59.736134"
       cy="169.11154"
       r="3.5439723" />
    <path
       style="opacity:1;fill:none;fill-opacity:1;fill-rule:nonzero;stroke:#000000;stroke-width:0.58567166;stroke-miterlimit:4;stroke-dasharray:none;stroke-opacity:1"
       d="m 88.275903,134.54202 c -2.20326,0.003 -4.294311,0.96458 -5.721102,2.62998 -0.652409,-0.32679 -1.371344,-0.49722 -2.100362,-0.49792 -2.052289,0.003 -3.86744,1.33776 -4.48933,3.30242 -0.333618,-0.0511 -0.670499,-0.0782 -1.008044,-0.0813 -3.509337,1e-4 -6.418299,2.5457 -6.955414,5.87677 a 4.5974134,4.6789805 0 0 0 -0.921462,-0.0953 4.5974134,4.6789805 0 0 0 -4.597616,4.67914 4.5974134,4.6789805 0 0 0 0.417902,1.93486 c -1.318163,1.1295 -2.153442,2.7985 -2.153464,4.66196 4.72e-4,2.70974 1.786088,5.1009 4.399055,5.89094 0.437059,2.08644 2.289138,3.58296 4.43738,3.58551 0.844051,-0.003 1.670809,-0.23749 2.387352,-0.68 1.044846,0.95333 2.437388,1.48595 3.886258,1.48642 1.749437,-0.002 3.398012,-0.77798 4.45839,-2.09954 1.308112,1.70835 3.345584,2.71253 5.508227,2.71473 1.396832,-0.003 2.760219,-0.42418 3.91119,-1.2093 1.264659,1.37178 3.051532,2.15423 4.925473,2.15681 2.186997,-0.002 4.235292,-1.06279 5.484914,-2.84322 l 0.008,4.6e-4 c 3.16561,-6e-5 5.73177,-2.54576 5.73172,-5.68596 l -2.3e-4,-0.004 c 3.18337,-0.0643 5.73061,-2.64176 5.73219,-5.80025 -0.003,-1.59103 -0.66455,-3.11102 -1.82955,-4.20458 0.89138,-0.67175 1.41408,-1.70808 1.41579,-2.80702 -4.7e-4,-1.60517 -1.10374,-3.01076 -2.69188,-3.42953 5.9e-4,-0.0337 6.8e-4,-0.0676 6.8e-4,-0.10124 9e-5,-4.05613 -3.31462,-7.34435 -7.40356,-7.34438 -0.73835,0.002 -1.47238,0.11185 -2.177709,0.32843 -0.641822,-0.81639 -1.64662,-1.29725 -2.714049,-1.29885 -1.000946,0.002 -1.950524,0.42442 -2.596076,1.15662 -1.410948,-1.41921 -3.335608,-2.21951 -5.34499,-2.22253 z"
       id="path6352"
       inkscape:connector-curvature="0" />
    <rect
       style="opacity:1;fill:none;fill-opacity:1;fill-rule:nonzero;stroke:#000000;stroke-width:0.86500001;stroke-miterlimit:4;stroke-dasharray:none;stroke-opacity:1"
       id="rect6566"
       width="74.272324"
       height="74.272324"
       x="43.845238"
       y="119.1622" />
    <path
       style="opacity:1;fill:#ff6600;fill-opacity:1;fill-rule:nonzero;stroke:#000000;stroke-width:2.33520818;stroke-miterlimit:4;stroke-dasharray:none;stroke-opacity:1"
       d="M 167.53988,590.84147 V 452.27005 H 306.11131 444.68274 V 590.84147 729.4129 H 306.11131 167.53988 Z m 26.56666,101.656 c 2.59875,-2.34163 2.2021,-7.01422 -0.79048,-9.31185 -1.9526,-1.49916 -5.66727,-1.08942 -7.59436,0.83768 -5.36575,5.36574 2.74139,13.55925 8.38484,8.47417 z m 15.63302,-17.87461 c 4.77403,-2.82009 5.49294,-9.98986 1.41098,-14.07183 -1.93047,-1.93046 -2.70232,-2.20956 -6.11066,-2.20956 -3.45357,0 -4.16899,0.2679 -6.23626,2.33517 -2.0608,2.0608 -2.33517,2.78836 -2.33517,6.19246 0,3.12588 0.3386,4.2216 1.78572,5.77865 3.13765,3.37602 7.76634,4.172 11.48539,1.97511 z m 20.72945,-21.76162 c 3.86048,-1.33142 6.23289,-3.45653 8.14712,-7.29791 3.10819,-6.23733 1.81311,-12.75126 -3.45474,-17.3765 -7.94047,-6.97182 -20.6265,-3.12121 -23.37767,7.09587 -3.00227,11.14959 7.81606,21.32714 18.68529,17.57854 z m 138.31376,-15.92808 c 2.26284,-1.03218 5.56068,-3.27014 7.32854,-4.97322 2.26726,-2.18419 4.05609,-3.23708 6.07143,-3.57357 9.3697,-1.56442 17.14904,-9.28276 19.232,-19.0812 0.34512,-1.62345 1.10436,-2.10662 5.32455,-3.38847 14.89783,-4.52508 21.12288,-22.04748 12.47508,-35.11517 l -1.81974,-2.74983 1.40205,-1.99797 c 4.68581,-6.67746 3.41321,-15.71235 -2.85246,-20.25118 -1.53047,-1.10867 -3.12131,-2.12864 -3.5352,-2.2666 -0.41389,-0.13796 -1.04446,-2.11248 -1.40127,-4.38783 -2.38484,-15.20796 -16.70421,-25.68723 -32.75358,-23.96988 -3.37093,0.3607 -4.20147,0.19567 -5.85109,-1.16265 -2.87527,-2.36753 -8.26791,-3.46641 -12.03421,-2.45225 -1.68134,0.45274 -3.80659,1.31432 -4.72278,1.91463 -1.55518,1.019 -1.89144,0.94826 -5.06457,-1.06548 -5.42282,-3.44143 -8.71947,-4.5344 -14.92095,-4.9469 -7.61425,-0.50646 -14.04876,1.35719 -20.1219,5.82798 -4.12365,3.03566 -4.43852,3.14396 -7.04688,2.42375 -3.59518,-0.99268 -9.36702,-0.34903 -12.86284,1.43441 -3.16842,1.6164 -7.01728,5.27286 -8.47081,8.04734 -0.86895,1.65866 -1.51571,1.90309 -6.0389,2.2823 -11.31834,0.94888 -21.36315,8.74603 -24.34285,18.89582 -0.85516,2.91294 -1.00605,3.03571 -3.73099,3.03571 -4.92472,0 -8.49689,1.53865 -12.40255,5.34215 -5.05017,4.9181 -7.09048,11.79736 -5.32486,17.95372 0.55359,1.93023 0.32915,2.60183 -1.74573,5.22385 -3.6689,4.63638 -4.96309,8.7609 -4.94704,15.766 0.0107,4.68357 0.36655,6.84164 1.55662,9.44088 2.09242,4.57005 7.27163,9.9399 11.49485,11.91795 2.67988,1.25518 3.68765,2.20157 4.37835,4.11167 2.3163,6.4056 9.34844,10.93906 16.98695,10.95109 2.43687,0.004 5.24499,-0.36405 6.24027,-0.81753 0.79428,-0.36189 1.43812,-0.48143 2.47124,-0.23645 0.99141,0.23509 2.34131,0.80587 4.52666,1.82027 8.72623,4.05057 17.56448,3.19008 24.99782,-2.43379 l 2.33333,-1.76534 2.73996,2.38439 c 4.82917,4.20248 11.69362,6.71677 18.4348,6.75225 3.56532,0.0188 12.40243,-2.40756 13.14503,-3.60911 0.27436,-0.44391 1.33744,-0.0563 2.70875,0.98775 3.04987,2.32191 7.73086,4.65408 10.99608,5.47848 4.59441,1.15999 12.54961,0.34903 17.14684,-1.74797 z"
       id="path6570"
       inkscape:connector-curvature="0"
       transform="scale(0.26458333)"
       sodipodi:nodetypes="cccccccccsscsccssscccccscsccccccccssccccccsccccssccsccccccscccscccss" />
    <path
       style="fill:none;stroke:#000000;stroke-width:0.26458332px;stroke-linecap:butt;stroke-linejoin:miter;stroke-opacity:1"
       d="m 71.726604,166.1044 c 0.425961,0.0501 0.442664,0.0501 0.442664,0.0501 l -0.0084,-0.025"
       id="path6592"
       inkscape:connector-curvature="0" />
    <path
       style="fill:none;stroke:#000000;stroke-width:0.26458332px;stroke-linecap:butt;stroke-linejoin:miter;stroke-opacity:1"
       d="m 75.535194,139.73659 0.509482,-0.2088"
       id="path6594"
       inkscape:connector-curvature="0" />
    <path
       style="fill:none;stroke:#000000;stroke-width:0.26458332px;stroke-linecap:butt;stroke-linejoin:miter;stroke-opacity:1"
       d="m 82.108354,136.86344 0.760048,-0.14198"
       id="path6596"
       inkscape:connector-curvature="0" />
    <path
       style="fill:none;stroke:#000000;stroke-width:0.26458332px;stroke-linecap:butt;stroke-linejoin:miter;stroke-opacity:1"
       d="m 93.408843,136.3289 0.634765,0.0501"
       id="path6598"
       inkscape:connector-curvature="0" />
    <path
       style="fill:none;stroke:#000000;stroke-width:0.26458332px;stroke-linecap:butt;stroke-linejoin:miter;stroke-opacity:1"
       d="m 105.92875,160.64208 0.85192,-0.16704"
       id="path6600"
       inkscape:connector-curvature="0" />
  </g>
</svg>
